<svg id="Capa_1" enable-background="new 0 0 511.993 511.993" height="512" viewBox="0 0 511.993 511.993" width="512" xmlns="http://www.w3.org/2000/svg"><g><path d="m195.643 86.539c-93.438 0-169.457 76.018-169.457 169.457s76.019 169.458 169.457 169.458c93.439 0 169.458-76.019 169.458-169.458s-76.019-169.457-169.458-169.457zm0 323.915c-85.168 0-154.457-69.29-154.457-154.458s69.289-154.457 154.457-154.457 154.458 69.289 154.458 154.457-69.29 154.458-154.458 154.458z"/><path d="m195.643 207.192c-26.91 0-48.804 21.894-48.804 48.805s21.894 48.805 48.804 48.805c26.911 0 48.805-21.894 48.805-48.805s-21.894-48.805-48.805-48.805zm0 82.609c-18.64 0-33.804-15.165-33.804-33.805s15.164-33.805 33.804-33.805 33.805 15.165 33.805 33.805-15.166 33.805-33.805 33.805z"/><path d="m195.643 451.64c25.274 0 49.948-4.838 72.877-14.039h228.321c8.355 0 15.152-6.797 15.152-15.153 0-7.834 0-65.774 0-74.555 0-8.355-6.797-15.153-15.152-15.153h-121.172c8.258-19.367 13.381-40.105 15.03-61.514.318-4.13-2.771-7.736-6.901-8.054-4.133-.322-7.735 2.772-8.054 6.902-7.251 94.114-85.922 166.566-180.102 166.566-99.606 0-180.642-81.036-180.642-180.644 0-99.607 81.036-180.643 180.643-180.643 92.314 0 169.759 69.706 179.589 161.099.444 4.118 4.131 7.101 8.259 6.655 4.118-.443 7.099-4.141 6.655-8.259-10.644-98.961-94.47-174.495-194.503-174.495-107.878 0-195.643 87.765-195.643 195.643 0 107.879 87.765 195.644 195.643 195.644zm118.819-40.197h61.824v11.158h-78.033c5.523-3.398 11.491-7.547 16.209-11.158zm124.207-37.544v22.544h-47.383v-22.544zm-47.383-15v-11.159h47.383v11.158h-47.383zm105.707 37.544h-43.324v-22.544h43.324zm-58.324 15v11.158h-47.383v-11.158zm-62.383-15h-44.448c6.799-6.586 13.672-14.258 19.943-22.544h24.505zm120.555 26.158h-43.172v-11.158h43.324v11.005c0 .084-.068.153-.152.153zm.152-74.708v11.005h-43.324v-11.158h43.172c.084 0 .152.069.152.153zm-120.707-.153v11.158h-14.214c2.262-3.651 4.403-7.372 6.415-11.158z"/><path d="m219.5 328.907c-3.246-2.575-7.964-2.03-10.537 1.215-2.574 3.245-2.03 7.963 1.215 10.537 5.646 4.479 8.885 11.168 8.885 18.354 0 12.914-10.506 23.42-23.42 23.42-12.913 0-23.419-10.506-23.419-23.42 0-8.331 4.282-15.857 11.455-20.132 3.558-2.121 4.724-6.724 2.603-10.282s-6.726-4.723-10.282-2.603c-11.581 6.902-18.775 19.553-18.775 33.017 0 21.185 17.234 38.42 38.419 38.42s38.42-17.235 38.42-38.42c-.002-11.792-5.309-22.764-14.564-30.106z"/><path d="m265.647 171.216c-18.388 10.617-24.681 34.091-14.062 52.482 10.598 18.356 34.046 24.707 52.481 14.062 18.347-10.592 24.655-34.135 14.062-52.482-10.591-18.346-34.136-24.653-52.481-14.062zm39.493 21.562c10.397 18.008-6.258 39.716-26.343 34.332-19.976-5.352-23.786-32.431-5.649-42.904 11.183-6.458 25.535-2.61 31.992 8.572z"/><path d="m304.067 274.232c-29.745-17.175-65.104 10.436-56.32 43.216 8.817 32.902 53.295 38.864 70.383 9.267 10.593-18.348 4.284-41.891-14.063-52.483zm-30.92 53.555c-11.209-6.473-15.044-20.781-8.571-31.992 10.457-18.111 37.543-14.355 42.903 5.648 5.38 20.076-16.31 36.747-34.332 26.344z"/><path d="m195.643 191.4c21.185 0 38.42-17.235 38.42-38.419s-17.235-38.42-38.42-38.42-38.419 17.235-38.419 38.42 17.234 38.419 38.419 38.419zm0-61.84c12.914 0 23.42 10.506 23.42 23.42s-10.506 23.419-23.42 23.419c-12.913 0-23.419-10.506-23.419-23.419s10.505-23.42 23.419-23.42z"/><path d="m69.317 297.561c-6.539 24.402 11.869 48.38 37.174 48.38 29.343 0 47.995-32.036 33.209-57.646-16.962-29.38-61.489-23.922-70.383 9.266zm48.821 30.226c-18.13 10.467-39.687-6.357-34.331-26.344 2.858-10.666 12.478-17.368 22.583-17.368 23.911 0 32.403 31.786 11.748 43.712z"/><path d="m96.484 167.378c-20.511 5.496-32.664 26.542-27.167 47.054 8.795 32.821 53.23 38.977 70.383 9.266 17.061-29.549-10.27-65.148-43.216-56.32zm30.226 48.82c-6.473 11.211-20.779 15.044-31.991 8.572-20.73-11.968-12.09-43.697 11.749-43.697 17.966 0 29.223 19.57 20.242 35.125z"/></g></svg>