<svg id="Capa_1" enable-background="new 0 0 511.997 511.997" height="512" viewBox="0 0 511.997 511.997" width="512" xmlns="http://www.w3.org/2000/svg"><g><path d="m234.359 356.608v-20.944c0-7.564-6.153-13.719-13.718-13.719h-9.611v-9.61c0-7.564-6.153-13.719-13.718-13.719h-20.945c-7.564 0-13.719 6.154-13.719 13.719v9.61h-9.611c-7.564 0-13.718 6.154-13.718 13.719v20.944c0 7.564 6.153 13.719 13.718 13.719h9.611v9.611c0 7.564 6.154 13.718 13.719 13.718h20.945c7.564 0 13.718-6.153 13.718-13.718v-9.611h9.611c7.565 0 13.718-6.154 13.718-13.719zm-15-1.281h-9.611c-7.564 0-13.718 6.153-13.718 13.718v9.611h-18.382v-9.611c0-7.564-6.153-13.718-13.718-13.718h-9.611v-18.382h9.611c7.564 0 13.718-6.153 13.718-13.718v-9.611h18.382v9.611c0 7.564 6.153 13.718 13.718 13.718h9.611z"/><path d="m326.89 364.374c0-14.191-11.546-25.737-25.737-25.737-14.192 0-25.738 11.546-25.738 25.737 0 14.192 11.546 25.738 25.738 25.738 14.191 0 25.737-11.546 25.737-25.738zm-25.738 10.738c-5.921 0-10.738-4.817-10.738-10.738s4.817-10.737 10.738-10.737 10.737 4.816 10.737 10.737-4.816 10.738-10.737 10.738z"/><path d="m372.713 327.898c0-14.191-11.546-25.737-25.737-25.737-14.192 0-25.738 11.546-25.738 25.737 0 14.192 11.546 25.738 25.738 25.738 14.191.001 25.737-11.545 25.737-25.738zm-36.476 0c0-5.921 4.817-10.737 10.738-10.737s10.737 4.816 10.737 10.737-4.816 10.738-10.737 10.738-10.738-4.817-10.738-10.738z"/><path d="m99.399 30.489v451.02c0 16.812 13.678 30.488 30.489 30.488h194.109c48.854 0 88.6-39.745 88.6-88.599v-163.68c0-4.143-3.357-7.5-7.5-7.5s-7.5 3.357-7.5 7.5v163.68c0 40.582-33.017 73.599-73.6 73.599h-194.108c-8.541 0-15.489-6.948-15.489-15.488v-422.745h15.681v170.638c0 10.233 8.325 18.559 18.558 18.559h214.722c10.232 0 18.558-8.325 18.558-18.559v-170.638h15.681v165.955c0 4.143 3.357 7.5 7.5 7.5s7.5-3.357 7.5-7.5c0-7.844 0-185.717 0-194.229-.002-16.812-13.68-30.49-30.492-30.49h-252.22c-16.81 0-30.489 13.678-30.489 30.489zm267.518 198.912c0 1.962-1.596 3.559-3.558 3.559h-214.721c-1.962 0-3.558-1.597-3.558-3.559 0-10.88 0-171.869 0-180.162 0-1.962 1.596-3.559 3.558-3.559h214.722c1.962 0 3.558 1.597 3.558 3.559-.001 8.161-.001 169.274-.001 180.162zm14.176-185.637c-2.605-8.105-9.934-13.083-17.733-13.083h-214.722c-7.812 0-15.135 4.999-17.733 13.083h-16.505v-13.274c0-8.387 6.855-15.489 15.489-15.489h252.22c8.54 0 15.489 6.948 15.489 15.489v13.273h-16.505z"/><path d="m150.988 445.848v21.136c0 4.143 3.357 7.5 7.5 7.5s7.5-3.357 7.5-7.5v-21.136c0-4.143-3.357-7.5-7.5-7.5s-7.5 3.357-7.5 7.5z"/><path d="m179.34 445.848v21.136c0 4.143 3.357 7.5 7.5 7.5s7.5-3.357 7.5-7.5v-21.136c0-4.143-3.357-7.5-7.5-7.5s-7.5 3.357-7.5 7.5z"/><path d="m215.19 438.348c-4.143 0-7.5 3.357-7.5 7.5v21.136c0 4.143 3.357 7.5 7.5 7.5s7.5-3.357 7.5-7.5v-21.136c0-4.143-3.357-7.5-7.5-7.5z"/><path d="m236.041 445.848v21.136c0 4.143 3.357 7.5 7.5 7.5s7.5-3.357 7.5-7.5v-21.136c0-4.143-3.357-7.5-7.5-7.5s-7.5 3.357-7.5 7.5z"/><path d="m264.393 445.848v21.136c0 4.143 3.357 7.5 7.5 7.5s7.5-3.357 7.5-7.5v-21.136c0-4.143-3.357-7.5-7.5-7.5s-7.5 3.357-7.5 7.5z"/><path d="m292.743 445.848v21.136c0 4.143 3.357 7.5 7.5 7.5s7.5-3.357 7.5-7.5v-21.136c0-4.143-3.357-7.5-7.5-7.5s-7.5 3.357-7.5 7.5z"/><path d="m328.594 474.483c4.143 0 7.5-3.357 7.5-7.5v-21.136c0-4.143-3.357-7.5-7.5-7.5s-7.5 3.357-7.5 7.5v21.136c0 4.143 3.357 7.5 7.5 7.5z"/><path d="m246.633 95.126c-2.929 2.93-2.929 7.678 0 10.607l44.835 44.835c2.931 2.929 7.678 2.928 10.607 0 2.929-2.93 2.929-7.678 0-10.607l-44.835-44.835c-2.929-2.928-7.678-2.928-10.607 0z"/><path d="m308.97 119.144c2.929-2.93 2.929-7.678 0-10.607l-20.832-20.832c-2.93-2.928-7.678-2.928-10.607 0-2.929 2.93-2.929 7.678 0 10.607l20.832 20.832c2.93 2.928 7.677 2.927 10.607 0z"/><path d="m326.267 57.847h-140.537c-8.13 0-14.744 6.613-14.744 14.743v133.461c0 8.13 6.614 14.743 14.744 14.743h52.768c4.143 0 7.5-3.357 7.5-7.5s-3.357-7.5-7.5-7.5h-52.512v-132.947h140.024v132.947h-52.512c-4.143 0-7.5 3.357-7.5 7.5s3.357 7.5 7.5 7.5h52.769c8.13 0 14.743-6.613 14.743-14.743v-133.461c0-8.13-6.614-14.743-14.743-14.743z"/></g></svg>