<svg id="Capa_1" enable-background="new 0 0 511.999 511.999" height="512" viewBox="0 0 511.999 511.999" width="512" xmlns="http://www.w3.org/2000/svg"><g><path d="m71.138 225.677c-22.727 0-41.217 18.49-41.217 41.217s18.49 41.217 41.217 41.217c22.728 0 41.218-18.49 41.218-41.217s-18.491-41.217-41.218-41.217zm0 67.435c-14.456 0-26.217-11.761-26.217-26.217s11.761-26.217 26.217-26.217 26.218 11.761 26.218 26.217-11.762 26.217-26.218 26.217z"/><path d="m189.627 308.112c22.728 0 41.218-18.49 41.218-41.217s-18.49-41.217-41.218-41.217c-22.727 0-41.217 18.49-41.217 41.217s18.49 41.217 41.217 41.217zm0-67.435c14.456 0 26.218 11.761 26.218 26.217s-11.762 26.217-26.218 26.217-26.217-11.761-26.217-26.217 11.761-26.217 26.217-26.217z"/><path d="m171.6 189.816c0-22.728-18.49-41.218-41.217-41.218-22.728 0-41.218 18.49-41.218 41.218s18.49 41.217 41.218 41.217c22.726.001 41.217-18.489 41.217-41.217zm-67.435 0c0-14.457 11.762-26.218 26.218-26.218s26.217 11.762 26.217 26.218-11.761 26.217-26.217 26.217-26.218-11.761-26.218-26.217z"/><path d="m431.645 80.072c-3.013 2.842-3.151 7.589-.31 10.603 42.344 44.891 65.664 103.604 65.664 165.325 0 67.305-27.634 129.751-75.128 174.827-3.004 2.852-3.128 7.599-.277 10.603 2.855 3.006 7.6 3.126 10.604.277 50.448-47.88 79.802-114.211 79.802-185.707 0-65.562-24.771-127.931-69.752-175.617-2.844-3.014-7.59-3.152-10.603-.311z"/><path d="m255.999 511.999c53.519 0 104.779-16.344 148.241-47.265 3.375-2.401 4.165-7.084 1.764-10.459s-7.084-4.165-10.459-1.764c-40.908 29.104-89.162 44.488-139.546 44.488-133.201 0-240.999-107.788-240.999-240.999 0-133.201 107.787-241 240.999-241 55.262 0 107.25 18.208 150.345 52.654 3.235 2.585 7.954 2.06 10.541-1.176 2.586-3.235 2.06-7.955-1.176-10.541-45.283-36.195-101.163-55.937-159.71-55.937-141.492 0-255.999 114.497-255.999 256 0 141.491 114.497 255.999 255.999 255.999z"/></g></svg>