<?xml version="1.0" ?><!DOCTYPE svg  PUBLIC '-//W3C//DTD SVG 20010904//EN'  'http://www.w3.org/TR/2001/REC-SVG-20010904/DTD/svg10.dtd'><svg height="512.000000pt" preserveAspectRatio="xMidYMid meet" version="1.0" viewBox="0 0 512.000000 512.000000" width="512.000000pt" xmlns="http://www.w3.org/2000/svg"><g fill="#000000" stroke="none" transform="translate(0.000000,512.000000) scale(0.100000,-0.100000)"><path d="M2488 3518 c-20 -5 -72 -40 -120 -79 -133 -111 -160 -117 -244 -47 -27 23 -65 48 -84 56 -52 22 -147 20 -195 -5 -89 -47 -88 -44 -327 -678 l-223 -590 -137 -3 c-134 -3 -137 -3 -157 -29 -12 -14 -21 -31 -21 -37 0 -16 100 -257 138 -331 39 -78 85 -135 130 -162 l37 -23 1275 0 1275 0 37 23 c45 27 91 84 131 162 38 76 137 313 137 330 0 7 -9 24 -21 38 -20 26 -23 26 -157 29 l-137 3 -222 590 c-240 634 -239 631 -328 678 -48 25 -143 27 -195 5 -19 -8 -57 -33 -84 -56 -84 -69 -111 -64 -243 46 -107 89 -165 107 -265 80z m111 -127 c10 -6 53 -39 96 -75 100 -83 135 -100 210 -100 66 1 105 16 172 70 57 47 88 57 130 43 18 -6 40 -21 48 -32 14 -22 425 -1103 425 -1118 0 -5 -502 -9 -1120 -9 -616 0 -1120 4 -1120 8 0 11 406 1086 419 1111 6 10 26 26 46 35 44 21 76 13 138 -37 67 -55 106 -70 172 -71 76 0 110 17 211 101 100 83 131 96 173 74z m1371 -1359 c0 -31 -109 -257 -140 -289 l-21 -23 -1249 0 -1249 0 -22 23 c-11 12 -34 48 -50 79 -26 52 -89 202 -89 213 0 3 635 5 1410 5 776 0 1410 -4 1410 -8z"/><path d="M2207 3035 c-18 -18 -14 4 -83 -383 -52 -293 -54 -315 -40 -338 29 -43 96 -41 111 5 3 10 32 166 65 346 60 334 62 364 25 379 -28 10 -63 7 -78 -9z"/><path d="M2825 3036 c-13 -9 -19 -25 -18 -47 2 -50 113 -660 124 -681 21 -39 98 -27 115 17 3 8 -19 155 -50 327 -70 389 -65 365 -83 383 -18 19 -63 19 -88 1z"/></g></svg>